<?xml version="1.0" encoding="utf-8"?>
<!-- Generator: Adobe Illustrator 19.0.0, SVG Export Plug-In . SVG Version: 6.00 Build 0)  -->
<svg version="1.1" id="Camada_1" xmlns="http://www.w3.org/2000/svg" xmlns:xlink="http://www.w3.org/1999/xlink" x="0px" y="0px"
	 viewBox="0 0 960 560" style="enable-background:new 0 0 960 560;" xml:space="preserve">
<style type="text/css">
	.st0{fill:none;stroke:#000000;stroke-miterlimit:10;}
	.st1{fill:#FFFFFF;}
	.st2{fill:none;stroke:#000000;stroke-width:3;stroke-miterlimit:10;}
	.st3{fill:#FFFFFF;stroke:#FFFFFF;stroke-miterlimit:10;}
	.st4{fill:#1A1A18;}
	.st5{fill:#F9F9F9;}
</style>
<g>
	<g>
		<path id="XMLID_18_" class="st0" d="M118,159.9"/>
		<g>
			<path id="XMLID_17_" class="st1" d="M525.9,140.2c0,0-8.3,3.9-106.1-13.8c0,0-68.1-11.3-89.1,29.6l124.1,171.6
				c0,0,28.7-32.5,83.2-33.5c0,0,7.8-6.4,152.8,15.8L525.9,140.2z"/>
			<path id="XMLID_16_" class="st0" d="M525.9,140.2c0,0-8.3,3.9-106.1-13.8c0,0-68.1-11.3-89.1,29.6l124.1,171.6
				c0,0,28.7-32.5,83.2-33.5c0,0,7.8-6.4,152.8,15.8L525.9,140.2z"/>
		</g>
		<g>
			<path id="XMLID_15_" class="st1" d="M201.3,355.6L118,159.9l83.2-32.1c0,0,89.5-31.6,129.5,27.7l124.1,169.4
				c0,0-42.3-28.7-127-6.3L201.3,355.6z"/>
			<path id="XMLID_14_" class="st0" d="M201.3,355.6L118,159.9l83.2-32.1c0,0,89.5-31.6,129.5,27.7l124.1,169.4
				c0,0-42.3-28.7-127-6.3L201.3,355.6z"/>
		</g>
		<g>
			<path id="XMLID_13_" class="st1" d="M102.5,189.6c0,0,2.8-24.7,15.6-29.7l83.2,195.6l-11.7,50.1L102.5,189.6z"/>
			<path id="XMLID_12_" class="st0" d="M102.5,189.6c0,0,2.8-24.7,15.6-29.7l83.2,195.6l-11.7,50.1L102.5,189.6z"/>
		</g>
		<g>
			<path id="XMLID_11_" class="st1" d="M201.3,355.6l-11.7,50.1c0,0,162.3-74.9,234-40.8c0,0,7.4-29.7,31.3-39.9
				C454.8,324.9,392.5,273.8,201.3,355.6z"/>
			<path id="XMLID_10_" class="st0" d="M201.3,355.6l-11.7,50.1c0,0,162.3-74.9,234-40.8c0,0,7.4-29.7,31.3-39.9
				C454.8,324.9,392.5,273.8,201.3,355.6z"/>
		</g>
		<g>
			<path id="XMLID_9_" class="st1" d="M690.9,307.4v49.3c0,1-0.9,1.8-1.9,1.5c-18.9-4.5-171.4-39.4-208.3,0.1L448,339.4
				c0,0,29.9-49.3,92.8-48.2L690.9,307.4z"/>
			<path id="XMLID_8_" class="st0" d="M690.9,307.4v49.3c0,1-0.9,1.8-1.9,1.5c-18.9-4.5-171.4-39.4-208.3,0.1L448,339.4
				c0,0,29.9-49.3,92.8-48.2L690.9,307.4z"/>
		</g>
		<g>
			<path id="XMLID_7_" d="M425.1,361.4c0,0-58.8-20.2-138.3,6.8l-97.6,34.4l-87.8-218.4H88.6l90.3,231.8L306,385.5
				c0,0,103-28.5,116.8-14.3c0,0,21.1,18.7,71.1-9.8c0,0,41.2-7.9,69.7,1.5l154.8,11.6c0.7,0.1,1.4-0.4,1.6-1.1v0
				c4-13.2,0.7-27.6-8.7-37.7l-16.7-18.1c0,0,5.1-10.9,5.9-13.8c1.1-4.1-11.6-12.2-14.2-8.9c-1.8,2.3,9.6,5.8,8.3,8.4l0,0
				c-3.6-0.5-6.7,2.3-6.7,5.9l0.8,42.8c0,0-98.6-15.9-124.6-16.3c0,0-55.4-5.8-81.5,19c0,0,8.3-23.5-22.1-19h-10.8
				c0,0,1.6-17.5,36.6-35.5C486.4,300.2,428.9,325.1,425.1,361.4z"/>
			<path id="XMLID_6_" class="st2" d="M425.1,361.4c0,0-58.8-20.2-138.3,6.8l-97.6,34.4l-87.8-218.4H88.6l90.3,231.8L306,385.5
				c0,0,103-28.5,116.8-14.3c0,0,21.1,18.7,71.1-9.8c0,0,41.2-7.9,69.7,1.5l154.8,11.6c0.7,0.1,1.4-0.4,1.6-1.1v0
				c4-13.2,0.7-27.6-8.7-37.7l-16.7-18.1c0,0,5.1-10.9,5.9-13.8c1.1-4.1-11.6-12.2-14.2-8.9c-1.8,2.3,9.6,5.8,8.3,8.4l0,0
				c-3.6-0.5-6.7,2.3-6.7,5.9l0.8,42.8c0,0-98.6-15.9-124.6-16.3c0,0-55.4-5.8-81.5,19c0,0,8.3-23.5-22.1-19h-10.8
				c0,0,1.6-17.5,36.6-35.5C486.4,300.2,428.9,325.1,425.1,361.4z"/>
		</g>
		
			<rect id="XMLID_5_" x="435.6" y="252.1" transform="matrix(0.866 -0.5 0.5 0.866 -77.3721 271.9095)" class="st3" width="66.2" height="56.6"/>
	</g>
	<g>
		<path id="XMLID_4_" class="st4" d="M535.6,230.8l58,40.3c0,0,1.4,17.1-13,11.6l-45-43c0,0-16.4-13.9-73,17.6
			c0,0,61.4,1.5,84.6,43.8c0,0,25.3-6.8,46.4,6.8c0,0,23.8-26.6,64.1-20.5c0,0,62.8,2.7,112.6,30.7c0,0,57.3-23.9,87.3-49.8
			c0,0,13.6-8.2,12.3,28l0.1,8.9c0,0,9-5.5,0,5.5l-5.6,7.5l-2-27.3c0,0,3.4-25.2-13.6-1.4c0,0-15.7,17.7-77.8,52.5h-11.6
			c0,0,16.4,96.9-69.6,103.7c0,0-105.1,4.8-105.1-122.8c0,0-14.3-7.5-34.1-5.5c0,0,11.6,80.5-52.5,91.4c0,0-95.5,21.2-94.2-117.4
			l-7.5-5.5v-18.4l94.8-36.8C491.2,230.8,526,219.2,535.6,230.8z"/>
		<path id="XMLID_3_" class="st0" d="M439.4,267.7"/>
		<path id="XMLID_2_" class="st5" d="M425.7,277.2c0,0,39.6-30.7,94.8,10.2c0,0,29.3,27.3,18.4,62.8c0,0-7.1,57.3-55.4,51.9
			c0,0-38.1-0.7-61.9-50.5C421.6,351.6,403.9,292.9,425.7,277.2z"/>
		<path id="XMLID_1_" class="st1" d="M608.9,308.5c0,0,48.4-31.8,115.9,10.6c0,0,35.9,28.3,22.5,65c0,0-8.7,59.4-67.7,53.7
			c0,0-46.5-0.7-75.7-52.3C603.9,385.5,582.3,324.7,608.9,308.5z"/>
	</g>
</g>
</svg>
